<svg width="56" height="56" viewBox="0 0 56 56" fill="none" xmlns="http://www.w3.org/2000/svg">
<circle cx="28" cy="28" r="28" fill="#4E6297"/>
<path d="M39.6 20.3445C39.6 18.2482 37.7503 16.3984 35.6539 16.3984H19.7462C17.6498 16.3984 15.8 18.2482 15.8 20.3445V36.2523C15.8 38.3487 17.6498 40.1984 19.7462 40.1984H27.7617V31.1964H24.8021V27.2503H27.7617V25.6471C27.7617 22.9342 29.7348 20.5912 32.2011 20.5912H35.4073V24.5373H32.2011C31.8311 24.5373 31.4612 24.9072 31.4612 25.6471V27.2503H35.4073V31.1964H31.4612V40.1984H35.6539C37.7503 40.1984 39.6 38.3487 39.6 36.2523V20.3445Z" fill="white"/>
</svg>
