<svg width="56" height="56" viewBox="0 0 56 56" fill="none" xmlns="http://www.w3.org/2000/svg">
<circle cx="28" cy="28" r="28" fill="url(#paint0_linear)"/>
<path d="M37.2129 16.8008H20.1867C18.2644 16.8008 16.7998 18.2654 16.7998 20.1877V37.2139C16.7998 39.1362 18.2644 40.6008 20.1867 40.6008H37.2129C39.1352 40.6008 40.5998 39.1362 40.5998 37.2139V20.1877C40.5998 18.2654 39.1352 16.8008 37.2129 16.8008ZM28.6998 35.8408C32.636 35.8408 35.8398 32.7285 35.8398 28.9754C35.8398 28.3346 35.7483 27.6023 35.5652 27.0531H37.579V36.7562C37.579 37.2139 37.2129 37.6716 36.6637 37.6716H20.736C20.2783 37.6716 19.8206 37.3054 19.8206 36.7562V26.9615H21.926C21.7429 27.6023 21.6513 28.2431 21.6513 28.8839C21.5598 32.7285 24.7637 35.8408 28.6998 35.8408ZM28.6998 33.0946C26.1367 33.0946 24.1229 31.0808 24.1229 28.6092C24.1229 26.1377 26.1367 24.1239 28.6998 24.1239C31.2629 24.1239 33.2767 26.1377 33.2767 28.6092C33.2767 31.1723 31.2629 33.0946 28.6998 33.0946ZM37.4875 23.3C37.4875 23.8492 37.0298 24.3069 36.4806 24.3069H33.9175C33.3683 24.3069 32.9106 23.8492 32.9106 23.3V20.8285C32.9106 20.2792 33.3683 19.8216 33.9175 19.8216H36.4806C37.0298 19.8216 37.4875 20.2792 37.4875 20.8285V23.3Z" fill="white"/>
<defs>
<linearGradient id="paint0_linear" x1="11.9" y1="49.7" x2="49" y2="11.2" gradientUnits="userSpaceOnUse">
<stop stop-color="#EEA054"/>
<stop offset="0.502762" stop-color="#D64763"/>
<stop offset="1" stop-color="#B62A99"/>
</linearGradient>
</defs>
</svg>
