<svg width="56" height="56" viewBox="0 0 56 56" fill="none" xmlns="http://www.w3.org/2000/svg">
<circle cx="28" cy="28" r="28" fill="#7294C7"/>
<path d="M41.7289 35.1619C41.7289 35.0457 41.6127 35.0457 41.6127 34.9295C41.1477 33.9996 40.1017 32.8373 38.7069 31.5588C38.0095 30.9776 37.6608 30.5127 37.4283 30.2802C37.0796 29.8153 37.0796 29.4666 37.1959 29.0017C37.3121 28.653 37.777 28.0718 38.5906 27.0257C39.0556 26.4445 39.288 26.0958 39.6367 25.7472C41.3802 23.4225 42.1938 21.9115 41.9614 21.2141L41.8452 21.0979C41.7289 20.9816 41.6127 20.8654 41.3802 20.8654C41.1477 20.7492 40.799 20.7492 40.4504 20.8654H36.0335C35.9173 20.8654 35.9173 20.8654 35.6848 20.8654C35.5686 20.8654 35.4524 20.8654 35.4524 20.8654H35.3361H35.2199L35.1037 20.9816C34.9874 21.0979 34.9874 21.0979 34.9874 21.2141C34.5225 22.4926 33.9413 23.5387 33.3602 24.7011C33.0115 25.2822 32.6628 25.8634 32.3141 26.3283C31.9654 26.7932 31.7329 27.1419 31.5005 27.3744C31.268 27.6069 31.0355 27.7231 30.9193 27.9556C30.8031 28.0718 30.5706 28.188 30.5706 28.0718C30.4544 28.0718 30.3381 28.0718 30.3381 27.9556C30.2219 27.8393 30.1057 27.7231 29.9895 27.6069C29.8732 27.4906 29.8732 27.2582 29.757 27.0257C29.757 26.7932 29.757 26.5608 29.757 26.4445C29.757 26.3283 29.757 25.9796 29.757 25.7472C29.757 25.3985 29.757 25.166 29.757 25.0498C29.757 24.7011 29.757 24.2361 29.757 23.7712C29.757 23.3063 29.757 22.9576 29.757 22.7251C29.757 22.4926 29.757 22.144 29.757 21.9115C29.757 21.5628 29.757 21.3303 29.757 21.2141C29.757 21.0979 29.6408 20.8654 29.6408 20.7492C29.5245 20.6329 29.4083 20.5167 29.2921 20.4005C29.1758 20.2842 28.9434 20.2842 28.8271 20.168C28.246 20.0518 27.5486 19.9355 26.735 19.9355C24.8753 19.9355 23.5967 20.0518 23.1318 20.2842C22.8993 20.4005 22.6668 20.5167 22.5506 20.7492C22.3182 20.9816 22.3181 21.0979 22.4344 21.0979C23.0155 21.2141 23.4805 21.4466 23.7129 21.7952L23.8292 22.0277C23.9454 22.144 23.9454 22.3764 24.0616 22.7251C24.1779 23.0738 24.1779 23.4225 24.1779 23.8874C24.1779 24.5848 24.1779 25.2822 24.1779 25.7472C24.1779 26.3283 24.0616 26.677 24.0616 27.0257C24.0616 27.3744 23.9454 27.6069 23.8292 27.7231C23.7129 27.9556 23.7129 28.0718 23.5967 28.0718C23.5967 28.0718 23.5967 28.188 23.4805 28.188C23.3642 28.188 23.248 28.3043 23.0155 28.3043C22.8993 28.3043 22.6668 28.188 22.5506 28.0718C22.3182 27.9556 22.0857 27.7231 21.9695 27.4906C21.737 27.2582 21.5045 26.9095 21.2721 26.4445C21.0396 25.9796 20.6909 25.5147 20.4584 24.8173L20.226 24.3524C20.1097 24.1199 19.8773 23.655 19.6448 23.0738C19.4123 22.4926 19.1799 22.0277 18.9474 21.4466C18.8312 21.2141 18.715 21.0979 18.5987 20.9816H18.4825C18.4825 20.9816 18.3662 20.8654 18.25 20.8654C18.1338 20.8654 18.0176 20.7492 17.9013 20.7492H13.717C13.252 20.7492 13.0196 20.8654 12.9033 20.9816L12.7871 21.0979C12.7871 21.0979 12.7871 21.2141 12.7871 21.3303C12.7871 21.4466 12.7871 21.5628 12.9033 21.7952C13.4845 23.19 14.1819 24.5848 14.8793 25.9796C15.5767 27.2582 16.2741 28.4205 16.739 29.2341C17.3202 30.0477 17.7851 30.8614 18.3663 31.5588C18.9474 32.2561 19.2961 32.7211 19.4123 32.9535C19.6448 33.186 19.761 33.3022 19.8773 33.4185L20.226 33.7672C20.4584 33.9996 20.8071 34.3483 21.2721 34.697C21.737 35.0457 22.3181 35.3944 22.8993 35.7431C23.4805 36.0918 24.1779 36.3243 24.8753 36.5567C25.6889 36.7892 26.3863 36.9054 27.0837 36.7892H28.8271C29.1758 36.7892 29.4083 36.673 29.6408 36.4405L29.757 36.3243C29.757 36.208 29.8732 36.208 29.8732 36.0918C29.8732 35.9756 29.8732 35.8593 29.8732 35.6269C29.8732 35.162 29.8732 34.8133 29.9895 34.4646C30.1057 34.1159 30.1057 33.8834 30.2219 33.6509C30.3382 33.4185 30.4544 33.3022 30.5706 33.186C30.6869 33.0698 30.8031 32.9535 30.8031 32.9535H30.9193C31.1518 32.8373 31.5005 32.9535 31.7329 33.186C32.0816 33.4185 32.4303 33.7672 32.6628 34.1159C32.8953 34.4646 33.244 34.8133 33.7089 35.2782C34.1738 35.7431 34.5225 36.0918 34.755 36.208L35.1037 36.4405C35.3361 36.5567 35.5686 36.673 35.9173 36.7892C36.266 36.9054 36.4984 36.9054 36.7309 36.9054L40.6828 36.7892C41.0315 36.7892 41.3802 36.673 41.6127 36.5567C41.8451 36.4405 41.9614 36.3243 41.9614 36.0918C41.9614 35.9756 41.9614 35.7431 41.9614 35.6269C41.7289 35.3944 41.7289 35.2782 41.7289 35.1619Z" fill="white"/>
</svg>
