<svg width="56" height="56" viewBox="0 0 56 56" fill="none" xmlns="http://www.w3.org/2000/svg">
<circle cx="28" cy="28" r="28" fill="#F40000"/>
<path d="M40.1985 26.478C40.1985 25.935 40.108 25.3014 40.108 24.5774C40.0175 23.8533 39.927 23.1293 39.8365 22.4958C39.6555 21.7717 39.384 21.2287 38.841 20.7762C38.3884 20.3237 37.7549 20.0521 37.1214 19.9616C35.0397 19.6901 31.9626 19.5996 27.7994 19.5996C23.6361 19.5996 20.4684 19.6901 18.4773 19.9616C17.8438 20.0521 17.2102 20.3237 16.7577 20.7762C16.3052 21.2287 15.9432 21.7717 15.7622 22.4958C15.5812 23.1293 15.4907 23.7628 15.4907 24.5774C15.4002 25.3014 15.4001 25.935 15.4001 26.478C15.4001 27.021 15.4001 27.6546 15.4001 28.5596C15.4001 29.4647 15.4001 30.1887 15.4001 30.6412C15.4001 31.1843 15.4907 31.8178 15.4907 32.5418C15.5812 33.2659 15.6717 33.9899 15.7622 34.6234C15.9432 35.3475 16.2147 35.8905 16.7577 36.343C17.2102 36.7956 17.8438 37.0671 18.4773 37.1576C20.5589 37.4291 23.6361 37.5196 27.7994 37.5196C31.9626 37.5196 35.1303 37.4291 37.1214 37.1576C37.7549 37.0671 38.3884 36.7956 38.841 36.343C39.2935 35.8905 39.6555 35.3475 39.8365 34.6234C40.0175 33.9899 40.108 33.3564 40.108 32.5418C40.1986 31.8178 40.1985 31.1843 40.1985 30.6412C40.1985 30.0982 40.1985 29.4647 40.1985 28.5596C40.1985 27.6546 40.1985 26.9305 40.1985 26.478ZM32.5961 29.2836L25.4462 33.7184C25.3557 33.8089 25.1747 33.8994 24.9937 33.8994C24.8127 33.8994 24.7222 33.8994 24.5412 33.8089C24.2696 33.6279 24.0886 33.3564 24.0886 32.9944V24.0344C24.0886 23.6723 24.2696 23.4008 24.5412 23.2198C24.8127 23.0388 25.1747 23.0388 25.4462 23.2198L32.5961 27.6546C32.8676 27.8356 33.0486 28.1071 33.0486 28.3786C33.0486 28.6501 32.8676 29.1026 32.5961 29.2836Z" fill="white"/>
</svg>
