<svg width="70" height="24" viewBox="0 0 70 24" fill="none" xmlns="http://www.w3.org/2000/svg">
<path d="M17.5027 0.662121C19.2371 0.662121 20.6433 2.06783 20.6433 3.80241C20.6433 5.53721 19.2371 6.94292 17.5027 6.94292H3.14063C1.40605 6.94292 0 5.53721 0 3.80241C0 2.06783 1.40605 0.662121 3.14051 0.662121H17.5027Z" fill="#CC393C"/>
<path d="M16.0591 8.89115C17.7937 8.89115 19.1998 10.2971 19.1998 12.0317C19.1998 13.7662 17.7937 15.1722 16.0591 15.1722H7.88467C7.18747 15.1747 6.61682 15.7262 6.59013 16.4164V20.5096C6.59013 22.2439 5.18408 23.6499 3.44995 23.6499C1.71538 23.6499 0.309326 22.2439 0.309326 20.5096V13.5437C0.309326 10.9743 2.39222 8.89104 4.96174 8.89104H16.0591V8.89115ZM22.0693 3.14051C22.0693 1.40616 23.4754 0 25.2099 0C26.9445 0 28.3504 1.40616 28.3504 3.14051V20.5315C28.3504 22.2661 26.9447 23.672 25.2099 23.672C23.4755 23.672 22.0693 22.266 22.0693 20.5315V3.14051ZM60.7221 17.443L61.9842 17.4399C62.108 17.4397 62.2268 17.3905 62.3143 17.3029C62.4019 17.2153 62.4511 17.0965 62.4512 16.9727C62.4532 16.9113 62.4419 16.8503 62.4182 16.7937L57.7254 8.90789L50.3942 21.6021C49.8279 22.5838 48.811 23.1436 47.7556 23.1717C47.7241 23.1761 47.6924 23.1784 47.6606 23.1784H35.7296C33.16 23.1784 31.077 21.0953 31.077 18.5259V3.14074C31.077 1.40628 32.4831 0.000113028 34.2175 0.000113028C35.9517 0.000113028 37.358 1.40628 37.358 3.14063V15.6025C37.3603 16.3 37.9117 16.871 38.6023 16.897H45.2765C45.4481 16.8442 45.9731 16.6658 46.133 16.4173L54.516 1.90557C55.1522 0.813344 56.3354 0.0780322 57.6898 0.0780322C59.0448 0.0780322 60.2283 0.814475 60.8616 1.90896L69.0304 15.6236C69.6605 16.443 70.0015 17.448 70 18.4816C70 21.0756 67.8972 23.1782 65.3037 23.1782H55.7819C54.1975 23.1782 52.9142 21.8941 52.9142 20.3102C52.9142 18.7268 54.1976 17.443 55.7819 17.443H60.7221Z" fill="#3D3D6A"/>
</svg>
