<svg width="154" height="30" viewBox="0 0 154 30" fill="none" xmlns="http://www.w3.org/2000/svg">
<path d="M94.0858 5.53237V24.7335H99.5044V5.53237H94.0858ZM51.4526 5.49982V24.7173H56.9201V9.79568L61.1834 9.81195C62.5828 9.81195 63.5591 10.1537 64.2263 10.8696C65.0887 11.7809 65.4304 13.2617 65.4304 15.9466V24.7173H70.7352V14.1078C70.7352 6.52497 65.9023 5.49982 61.1834 5.49982H51.4526ZM102.824 5.53237V24.7335H111.611C116.297 24.7335 117.827 23.9525 119.47 22.2114C120.642 20.9909 121.39 18.2898 121.39 15.3445C121.39 12.6433 120.756 10.235 119.633 8.73799C117.648 6.05308 114.751 5.53237 110.423 5.53237H102.824ZM108.194 9.69804H110.521C113.905 9.69804 116.086 11.2114 116.086 15.1492C116.086 19.0871 113.905 20.6167 110.521 20.6167H108.194V9.69804ZM86.2751 5.53237L81.7514 20.7469L77.423 5.53237H71.5651L77.7485 24.7335H85.5591L91.8077 5.53237H86.2751ZM123.929 24.7335H129.348V5.53237H123.929V24.7335ZM139.127 5.53237L131.561 24.7173H136.898L138.102 21.3164H147.052L148.191 24.701H154L146.368 5.53237H139.127ZM142.642 9.03088L145.929 18.0131H139.257L142.642 9.03088Z" fill="#140605"/>
<path d="M16.4837 8.72189V6.0858C16.7441 6.06952 17.0044 6.05325 17.2648 6.05325C24.4896 5.82544 29.2248 12.2692 29.2248 12.2692C29.2248 12.2692 24.1154 19.3639 18.6317 19.3639C17.8994 19.3639 17.1834 19.25 16.5 19.0222V11.0163C19.3151 11.358 19.8846 12.5947 21.5606 15.4098L25.3195 12.253C25.3195 12.253 22.5695 8.6568 17.9482 8.6568C17.4601 8.64053 16.9719 8.67307 16.4837 8.72189ZM16.4837 0V3.93787L17.2648 3.88905C27.3047 3.54734 33.8624 12.1228 33.8624 12.1228C33.8624 12.1228 26.3447 21.2677 18.5177 21.2677C17.8343 21.2677 17.1672 21.2027 16.5 21.0888V23.5296C17.0532 23.5947 17.6228 23.6435 18.176 23.6435C25.466 23.6435 30.7382 19.9172 35.8476 15.5237C36.6938 16.2071 40.1598 17.8506 40.8757 18.5666C36.0266 22.6346 24.7174 25.9053 18.3062 25.9053C17.6879 25.9053 17.1021 25.8728 16.5163 25.8077V29.2411H44.2115V0H16.4837V0ZM16.4837 19.0222V21.105C9.74704 19.9009 7.87574 12.8876 7.87574 12.8876C7.87574 12.8876 11.1139 9.30769 16.4837 8.72189V11H16.4674C13.6524 10.6583 11.4393 13.2944 11.4393 13.2944C11.4393 13.2944 12.6923 17.7367 16.4837 19.0222ZM4.52367 12.5947C4.52367 12.5947 8.51035 6.70414 16.5 6.0858V3.93787C7.64793 4.65384 0 12.139 0 12.139C0 12.139 4.3284 24.6686 16.4837 25.8077V23.5296C7.56657 22.4231 4.52367 12.5947 4.52367 12.5947Z" fill="#76B900"/>
</svg>
