<svg width="74" height="51" viewBox="0 0 74 51" fill="none" xmlns="http://www.w3.org/2000/svg">
<path d="M68.33 49.9867C64.8692 49.9867 62.8169 48.2155 62.6598 45.665H65.9686C65.9686 46.5152 66.4398 47.647 68.4871 47.7173C69.906 47.7173 70.6912 46.8672 70.6912 46.2281C70.534 45.237 69.2723 45.1667 68.0158 44.9501C66.5969 44.7444 65.4975 44.4573 64.7069 44.1053C63.6075 43.5367 62.9738 42.329 62.9738 41.0564C62.9738 38.787 64.8692 37.0159 68.1729 37.0159C71.3249 37.0159 73.372 38.6464 73.5235 41.1267H70.3772C70.3772 40.4927 70.22 39.4261 68.3298 39.4261C67.068 39.4261 66.2829 39.6373 66.1258 40.5579C66.1258 41.8361 68.8012 41.7656 70.8483 42.2584C72.7383 42.7567 74 43.959 74 45.665C74 48.7844 71.4818 49.9867 68.33 49.9867ZM8.03198 29.0578L18.8959 22.7484L24.7231 32.746H10.0791" fill="#140605"/>
<path d="M30.8772 49.6104V36.9919V49.6104Z" fill="#140605"/>
<path d="M30.8772 49.6104V36.9919" stroke="#140605" stroke-width="3.17901"/>
<path d="M2.98967 43.4881C2.98967 45.4701 4.72254 47.1003 6.60712 47.1003C8.65967 47.1003 10.2302 45.4701 10.2302 43.4881C10.2302 41.5764 8.65967 39.8758 6.60712 39.8758C4.72254 39.8758 2.98967 41.5764 2.98967 43.4881ZM6.45023 50.0086C2.98942 50.0086 0 47.1003 0 43.4881C0 39.8758 2.98967 37.0381 6.45023 37.0381C7.86909 37.0381 9.13082 37.3955 10.2302 38.1698V37.1787H13.3822V49.7215H10.2305V48.9417C9.2882 49.6512 7.86934 50.0086 6.45048 50.0086H6.45023ZM48.4992 32.7433L33.3841 6.37968L44.2478 0L63.1432 32.7433H48.4992ZM17.4765 43.4881C17.4765 45.4701 19.0527 47.1003 21.0996 47.1003C22.9842 47.1003 24.7227 45.4701 24.7227 43.4881C24.7227 41.5764 22.9842 39.8758 21.0996 39.8758C19.0525 39.8758 17.4765 41.5764 17.4765 43.4881ZM20.9425 50.0086C17.3193 50.0086 14.4871 47.1003 14.4871 43.4881C14.4871 39.8758 17.3193 37.0381 20.9425 37.0381C22.3559 37.0381 23.6179 37.3955 24.7227 38.1698V32.857H27.8693V49.7215H24.7225V48.9417C23.6176 49.6512 22.3559 50.0086 20.9422 50.0086H20.9425ZM20.7873 17.7898L31.8081 11.5563L43.934 32.7425H32.4367V35.8619H29.2899V32.7425L20.7873 17.7898ZM71.9582 35.9601C71.1676 35.9601 70.3825 35.2507 70.3825 34.4004C70.3825 33.5501 71.1676 32.8407 71.9582 32.8407C72.9005 32.8407 73.5345 33.5504 73.5345 34.4004C73.5345 35.2504 72.9005 35.9604 71.9582 35.9604V35.9601ZM71.9582 33.0575C71.1676 33.0575 70.6965 33.691 70.6965 34.4004C70.6965 35.1098 71.1676 35.749 71.9582 35.749C72.7436 35.749 73.2148 35.1101 73.2148 34.4004C73.2148 33.6907 72.7436 33.0575 71.9582 33.0575Z" fill="#140605"/>
<path d="M72.2835 35.2559L71.9692 34.5465H71.6552V35.2559H71.4169V33.5554H72.1263C72.2835 33.5554 72.5975 33.7722 72.5975 34.0537C72.5975 34.3351 72.4404 34.4762 72.2835 34.5465L72.5975 35.2559H72.2835ZM71.9692 33.7722H71.6552V34.3354H71.9692C72.2835 34.3354 72.2835 34.265 72.2835 34.0537C72.2835 33.9076 72.2835 33.7722 71.9692 33.7722ZM51.1622 43.4879C51.1622 45.4699 52.7384 47.1001 54.7853 47.1001C56.6753 47.1001 58.403 45.4699 58.403 43.4879C58.403 41.5762 56.6753 39.8756 54.7853 39.8756C52.7381 39.8756 51.1622 41.5762 51.1622 43.4879ZM54.623 50.0084C51.0053 50.0084 48.1727 47.1001 48.1727 43.4879C48.1727 39.8756 51.0053 37.0379 54.6227 37.0379C56.0418 37.0379 57.3036 37.3953 58.403 38.1696V37.1785H61.3978V49.7213H58.4032V48.9416C57.3036 49.651 56.0418 50.0084 54.6227 50.0084H54.623ZM36.6862 43.4879C36.6862 45.4699 38.4191 47.1001 40.3091 47.1001C42.3565 47.1001 43.9322 45.4699 43.9322 43.4879C43.9322 41.5762 42.3562 39.8756 40.3091 39.8756C38.4191 39.8756 36.6862 41.5762 36.6862 43.4879ZM43.9322 32.8568H47.0787V49.7213H43.9322V48.9416C42.9845 49.651 41.7228 50.0084 40.3091 50.0084C36.6862 50.0084 33.6965 47.1001 33.6965 43.4879C33.6965 39.8756 36.6862 37.0379 40.3091 37.0379C41.7225 37.0379 42.9845 37.3953 43.9322 38.1696V32.8568Z" fill="#140605"/>
</svg>
