<svg width="108" height="29" viewBox="0 0 108 29" fill="none" xmlns="http://www.w3.org/2000/svg">
<path fill-rule="evenodd" clip-rule="evenodd" d="M47.063 12.5954L41.3451 1.63944H33.4279L47.063 27.6292L60.6571 1.63944H52.7808L47.063 12.5954ZM96.8841 7.43752L108 27.03H99.4426L98.0837 24.3105H88.4064L87.0873 27.03H78.531L93.2444 0.999829L96.8841 7.43752ZM96.8841 3.47919C97.2034 3.47919 97.4839 3.35912 97.6836 3.11956C97.9238 2.87941 98.0433 2.59944 98.0433 2.27963C98.0433 1.95983 97.9238 1.71968 97.6836 1.48012C97.4839 1.23997 97.2034 1.1199 96.8841 1.1199C96.5637 1.1199 96.2843 1.23997 96.0442 1.48012C95.8041 1.72026 95.7238 1.95983 95.7238 2.27963C95.7238 2.59944 95.8445 2.87941 96.0442 3.11956C96.2843 3.35912 96.5637 3.47919 96.8841 3.47919ZM96.8841 0.879758C96.5245 0.879758 96.1637 0.99983 95.9247 1.2798C95.6043 1.51937 95.4837 1.87959 95.4837 2.27906C95.4837 2.6791 95.6043 3.03874 95.8837 3.27831C96.1631 3.55828 96.4835 3.71818 96.8835 3.71818C97.2432 3.71818 97.6028 3.55828 97.8822 3.31814C98.1628 3.03874 98.2823 2.67853 98.2823 2.27848C98.2823 1.91884 98.1628 1.55863 97.8822 1.27923C97.6034 0.99983 97.283 0.879758 96.8841 0.879758ZM96.8841 2.5192C96.9234 2.5192 96.9644 2.55961 97.0036 2.55961C97.044 2.55961 97.0839 2.59944 97.0839 2.67968C97.1243 2.71951 97.1243 2.75934 97.1243 2.87941C97.1243 2.95965 97.1243 3.03932 97.1635 3.07915H97.5232V3.03932V2.99948V2.79975C97.5232 2.63985 97.4839 2.51978 97.3633 2.44011C97.324 2.40028 97.2438 2.40028 97.1635 2.35987C97.2682 2.35537 97.3676 2.31265 97.4429 2.2398C97.4833 2.19997 97.5232 2.11973 97.5232 1.95983C97.5232 1.79992 97.4839 1.67985 97.3234 1.59961C97.2238 1.54959 97.1144 1.52219 97.003 1.51937H96.2428V3.07915H96.6827V2.5192H96.8841ZM96.8841 1.79992H96.6832V2.2398H96.8835C96.9638 2.2398 97.003 2.19997 97.0434 2.19997C97.1237 2.16014 97.1237 2.0799 97.1237 2.00024C97.1237 1.92 97.0833 1.84033 97.003 1.84033C96.9644 1.79992 96.9234 1.79992 96.8841 1.79992ZM93.2444 14.8341L90.8055 19.5526H95.6846L93.2444 14.8341ZM31.8687 27.03V1.64002H24.4716V27.03H31.8687ZM77.851 8.43735V1.64002H62.2163V27.03H77.851V20.2731H69.6544V16.9538H77.851V11.636H69.6544V8.43735H77.851ZM20.0728 1.64002H12.6757V11.5159L0 0V27.03H7.39712V17.5928L20.0722 28.9096V1.64002H20.0728Z" fill="#0A146E"/>
</svg>
