<svg width="93" height="34" viewBox="0 0 93 34" fill="none" xmlns="http://www.w3.org/2000/svg">
<path d="M15.0028 0.0748255C19.0388 -0.204932 23.2016 0.272521 26.9019 1.96972C30.203 3.46176 33.0677 6.01688 34.7015 9.27326C36.3241 12.4401 36.7456 16.1628 36.0444 19.6355C35.3804 22.9963 33.5974 26.1296 31.005 28.3751C28.1291 30.9041 24.4325 32.3141 20.7062 32.9893C17.3416 33.6122 13.9062 33.7092 10.4931 33.6532C7.89327 33.6159 5.28965 33.6159 2.69723 33.4481C2.4212 33.4145 2.0743 33.4257 1.89153 33.1832C1.66772 32.8886 1.8878 32.4745 2.1974 32.3477C3.7715 31.4525 5.02855 30.0798 5.95734 28.5393C6.99804 26.8607 7.70676 25.0143 8.44532 23.1903C9.68372 20.0607 10.8214 16.8901 12.0337 13.7531C12.9401 11.4367 13.951 9.11287 15.5213 7.15829C17.0096 5.28951 19.2253 3.99517 21.5902 3.65573C21.8886 3.64081 22.243 3.55501 22.5004 3.74152C22.7727 4.08096 22.3064 4.33834 22.0863 4.53976C19.8445 6.24069 18.5502 8.83684 17.4983 11.377C15.5325 16.2486 14.0256 21.3066 11.8024 26.0699C10.9035 27.8865 9.84411 29.6657 8.3558 31.0645C8.10588 31.3107 7.78882 31.5047 7.60978 31.818C7.5128 32.1425 7.90073 32.2917 8.16183 32.288C10.1873 32.4148 12.2239 32.4298 14.2494 32.3925C17.64 32.2731 21.0866 31.6614 24.1155 30.0723C27.1108 28.5467 29.5167 25.9133 30.7476 22.7837C32.0569 19.5161 32.277 15.8681 31.6093 12.4252C31.0498 9.50453 29.6211 6.69203 27.3346 4.74865C24.5221 2.33527 20.7435 1.39155 17.1066 1.28711C13.9435 1.261 10.702 1.76829 7.88208 3.26407C5.19267 4.67404 3.03667 7.13218 2.14891 10.0529C1.65653 11.8135 1.58193 13.7121 2.08549 15.4764C2.24589 15.9166 1.53717 15.9875 1.34693 15.6853C0.298773 14.2865 -0.0593166 12.4662 0.00782528 10.7429C0.0861575 8.59811 1.20146 6.62862 2.65993 5.11047C5.07704 2.58519 8.42667 1.1491 11.8173 0.496327C12.8655 0.279981 13.936 0.153158 15.0028 0.0748255ZM48.3612 11.9627C50.4202 11.6755 52.6844 11.8284 54.445 13.0407C55.978 14.0814 56.836 15.8793 57.0635 17.6847C57.3656 20.1167 56.877 22.5972 55.9146 24.8353C54.7471 27.5097 52.8336 29.8784 50.4015 31.5047C48.0814 33.0601 45.2242 33.8658 42.4303 33.5488C40.8487 33.3847 39.2821 32.7095 38.219 31.4972C36.809 29.9231 36.4099 27.7037 36.5293 25.6522C36.7494 22.075 38.3608 18.647 40.8002 16.0471C42.7921 13.9247 45.4591 12.3693 48.3612 11.9627ZM49.096 13.0593C47.8688 13.3503 46.7871 14.0627 45.8583 14.8945C44.3998 16.2187 43.277 17.8749 42.4117 19.6355C41.0091 22.5711 40.293 25.9021 40.7518 29.1473C40.9495 30.3707 41.4642 31.7471 42.6914 32.2619C44.079 32.8363 45.6531 32.3216 46.8467 31.5308C48.8349 30.1805 50.2337 28.1327 51.2856 26.0028C52.6321 23.1604 53.4416 19.9824 53.132 16.8267C52.9902 15.6853 52.7067 14.4544 51.8376 13.6375C51.1214 12.9549 50.0323 12.8355 49.096 13.0593ZM84.3753 12.0746C85.7704 11.7911 87.2289 11.765 88.6239 12.0746C89.6012 12.3021 90.5748 12.7982 91.1156 13.6748C91.8243 14.8013 91.7311 16.2747 91.1306 17.4235C90.2353 19.1618 88.6239 20.4002 86.9379 21.314C84.0098 22.877 80.7049 23.5708 77.4261 23.8915C77.027 25.2195 76.9114 26.622 76.93 28.0058C76.9673 29.0727 77.2247 30.2029 77.967 31.0049C78.5937 31.6987 79.5486 32.0157 80.4699 31.9933C82.2977 32.0157 84.062 31.2772 85.4906 30.1768C86.6693 29.2927 87.6578 28.1812 88.5493 27.0211C88.9037 26.6257 89.6534 27.0882 89.3214 27.5769C87.4713 30.8556 84.0396 33.3324 80.2312 33.6085C78.4034 33.7353 76.4078 33.4854 74.9382 32.3029C73.6699 31.3107 73.0321 29.7068 72.8903 28.1364C72.6665 25.7006 73.2484 23.25 74.2406 21.0343C75.1769 18.9902 76.4862 17.1139 78.1125 15.5622C79.8544 13.8911 82.003 12.5893 84.3753 12.0746ZM84.711 13.257C83.2488 13.8688 82.085 15.0064 81.0966 16.2187C79.5672 18.1696 78.4743 20.4412 77.7618 22.8061C79.4553 22.627 81.1339 22.2205 82.7005 21.5528C84.3455 20.8478 85.9084 19.8481 87.0461 18.4493C87.863 17.4422 88.4188 16.1516 88.2845 14.8349C88.2211 14.1672 87.9301 13.4398 87.2848 13.1451C86.4679 12.7572 85.5167 12.94 84.711 13.257ZM72.6777 12.4737C73.1403 12.0597 73.8154 11.7985 74.4159 12.0634C74.9158 12.2611 75.0986 12.8579 75.0314 13.3503C74.8524 15.2302 74.1772 17.0207 73.4461 18.7477C71.6482 22.9739 68.9215 26.7563 65.7472 30.0574C64.7289 31.0757 63.6621 32.0642 62.4386 32.8363C61.8418 33.2019 61.1927 33.5376 60.4766 33.5488C60.0812 33.5488 59.6298 33.3996 59.4582 33.0117C59.1561 32.3402 59.2382 31.5868 59.2382 30.8706C59.4993 26.3721 60.0774 21.8437 59.5478 17.3415C59.365 16.0098 59.1151 14.6185 58.3392 13.4883C58.1452 13.1787 57.8244 12.9884 57.5894 12.7199C57.5447 12.4961 57.8244 12.4177 57.9886 12.3767C59.3575 12.1268 60.898 12.4177 61.9201 13.41C62.8675 14.2828 63.2629 15.5771 63.4233 16.8193C63.8971 20.5755 63.6359 24.3802 63.3189 28.1401C63.289 28.6959 63.151 29.3039 63.4457 29.815C64.1171 29.8038 64.6207 29.3151 65.0683 28.875C68.0151 25.8088 70.2867 22.0974 71.7079 18.0912C72.2077 16.6626 72.5919 15.1855 72.7523 13.6748C72.7934 13.2757 72.7784 12.8654 72.6777 12.4737ZM90.724 30.091C91.6975 29.8112 92.8166 30.4976 92.962 31.5121C93.1933 32.5417 92.3354 33.6197 91.2835 33.6383C90.2428 33.7428 89.2916 32.7841 89.3662 31.7471C89.3998 30.9787 89.9705 30.2663 90.724 30.091ZM90.8508 30.3372C90.2465 30.4677 89.7579 31.0011 89.6646 31.6091C89.5042 32.482 90.2689 33.3772 91.1567 33.3735C92.0183 33.4182 92.7867 32.6051 92.7158 31.7509C92.6972 30.8445 91.7311 30.1022 90.8508 30.3372Z" fill="#090A4A"/>
<path d="M90.4747 30.718C90.9409 30.7479 91.5676 30.5763 91.8847 31.0351C92.0824 31.423 91.8063 31.8371 91.4221 31.949C91.631 32.2623 91.8362 32.5756 92.0301 32.8964C91.3251 33.0643 91.4445 31.8893 90.7917 31.9378C90.788 32.2548 90.788 32.5756 90.788 32.8927C90.7097 32.8889 90.5493 32.8852 90.4709 32.8852C90.4784 32.1653 90.4784 31.4417 90.4747 30.718ZM90.788 30.9605C90.788 31.2141 90.7917 31.4715 90.7955 31.7252C91.1125 31.7401 91.6832 31.7401 91.631 31.2775C91.5863 30.8784 91.0715 30.9903 90.788 30.9605Z" fill="#090A4A"/>
</svg>
