<svg width="100" height="33" viewBox="0 0 100 33" fill="none" xmlns="http://www.w3.org/2000/svg">
<path d="M38.4011 28.5638C34.6801 26.1668 29.6302 25.7461 21.4862 28.0057C12.8041 30.0459 9.9093 31.3538 6.10767 28.7283C4.64716 27.4385 4.12354 25.3619 4.51454 22.3706C5.42142 17.4944 7.87217 12.8017 12.2254 7.59648C14.6552 4.88873 16.9092 2.56497 19.8853 1.63184C22.1663 1.04647 21.9531 2.8391 21.6771 3.09547C21.3858 3.09547 20.8966 3.14135 20.5184 3.3881C20.2116 3.6261 19.3692 4.3946 19.3239 5.42835C19.2587 7.01086 20.8963 6.68148 21.6027 5.8126C22.3641 4.83348 23.4893 2.95847 22.6042 1.21097C22.2332 0.588966 21.5922 0.15909 20.7963 0.0127151C18.0711 -0.143035 15.5331 1.15609 13.1906 2.59235C8.0678 6.15098 3.96991 11.082 1.65116 16.4795C0.314404 19.7361 -0.894598 24.4011 0.917531 28.198C2.31953 30.8325 5.22992 32.2319 8.7023 31.9393C11.1377 31.6834 14.0826 30.8963 16.0632 30.421C18.0439 29.9449 28.1825 26.4599 31.5137 32.5255C31.5137 32.5255 32.6215 30.3752 35.3899 30.3293C37.6659 30.1193 40.9494 30.9882 43.3404 32.7443C42.5438 31.5463 40.2852 29.7807 38.4011 28.5638Z" fill="#DB252F"/>
<path d="M22.5199 8.20928C20.6236 6.96516 16.8124 9.34366 13.7598 13.4235C10.9683 17.0832 9.76287 21.3366 11.0748 23.3034C13.026 25.6178 16.6486 22.2514 18.1891 20.4496L18.3879 20.2389C19.4355 19.1137 20.2448 17.7597 21.0283 16.4604C21.0283 16.4604 21.7483 15.2712 21.7827 15.2162C22.2277 15.1342 22.7637 15.006 23.3677 14.8322C23.359 14.8594 21.0568 18.7292 21.2917 20.6499C21.3648 21.2359 21.309 23.3766 23.3989 24.0259C26.1844 24.4928 28.4087 22.3336 30.3709 20.4124C30.3709 20.4124 30.7053 20.0926 30.8944 19.9099C30.8465 20.1014 30.7842 20.3571 30.7842 20.3571C29.9687 23.1931 31.0679 23.7882 31.7555 24.0077C33.8337 24.6119 36.3163 21.5928 36.3244 21.5928C36.2599 22.5438 36.0718 23.3304 37.0743 23.9618C38.0204 24.3006 38.9781 23.7841 39.7061 23.2992C42.3279 21.4514 44.4402 18.5592 46.1462 16.0593H45.058C45.0451 16.0593 42.3727 19.9328 40.6373 20.7747C40.6346 20.7747 40.3187 20.9368 40.1368 20.8086C39.9114 20.6164 40.0003 20.2168 40.1394 19.9338C40.1482 19.9154 46.84 8.30928 46.84 8.30928H43.6805C43.6805 8.30928 43.3353 8.86766 43.3072 8.90428C43.286 8.88603 43.2353 8.79003 43.2003 8.74403C41.2428 6.03628 36.8099 10.2013 33.4726 15.0313C32.1877 16.8886 30.5518 18.9797 28.8555 20.4891C28.8555 20.4891 26.3425 22.7926 25.2689 21.1376C24.8764 20.4422 24.9972 19.4256 25.2185 18.7579C26.4687 15.1992 28.6228 11.9695 31.0742 10.0209C31.766 9.48154 32.5183 9.32553 32.8914 9.55429C33.2472 9.76504 33.3046 10.286 33.0796 10.6429C32.5087 10.6247 32.0512 10.7982 31.6794 11.1824C30.9469 11.9509 30.6924 12.692 30.9253 13.3874C32.0567 14.9974 34.3131 11.8138 34.2039 9.87441C34.1649 9.17904 33.7941 8.52053 33.2403 8.20003C32.4152 7.70628 31.1564 7.83416 30.3418 8.22778C29.2512 8.63928 27.525 10.0754 26.5174 11.1917C25.2489 12.5915 23.0733 14.1465 22.393 13.9724C22.6154 13.3777 24.453 9.61791 22.5199 8.20928ZM37.7526 13.7713C38.3672 12.9207 40.1561 10.6427 40.5922 10.2585C42.0589 8.96816 42.6452 9.53591 42.6959 9.93816C41.3271 12.3898 39.7114 15.1984 38.1924 17.7234C38.1956 17.7144 37.7171 18.4461 37.7171 18.4461C37.0462 19.4703 36.3707 20.3487 35.2688 20.9614C35.1117 21.0076 34.8527 21.0259 34.6803 20.8973C34.4728 20.7601 34.3909 20.5313 34.4143 20.2934C34.4804 19.5069 35.2812 17.1014 37.7526 13.7713ZM20.5644 15.244C20.5644 15.244 20.5368 15.3267 20.5233 15.3537C20.5198 15.3537 19.1456 17.5947 19.1456 17.5947C18.3164 18.7018 17.281 20.0927 15.9868 20.7602C15.6031 20.8882 15.0728 20.9708 14.8025 20.6326C14.2296 19.9463 14.5249 18.9948 14.7648 18.2266L14.8498 17.9521C15.5375 16.0861 16.6286 14.439 17.6909 12.9113C17.7041 12.9023 17.7339 12.8932 17.7446 12.8932C17.7473 12.9023 17.7515 12.9023 17.7533 12.9207C18.4198 14.2012 19.6695 14.7955 20.6041 15.0704C20.6098 15.0704 20.6159 15.0795 20.6159 15.0979C20.616 15.1252 20.6008 15.162 20.5644 15.244ZM21.8662 12.6005C21.86 12.6188 21.2541 14.0093 21.2541 14.0093C21.1665 14.0824 21.028 14.0459 20.8693 14.0093L20.5973 13.9633C19.7431 13.6982 19.0989 13.1309 18.9003 12.454C18.6264 11.1367 19.7518 10.1029 20.2475 9.72804C20.7233 9.39841 21.4629 9.22466 21.8924 9.56329C22.1573 9.87441 22.2577 10.2768 22.2577 10.7162C22.2578 11.3105 22.0743 11.9783 21.8662 12.6005ZM61.8087 16.8449C61.504 16.1864 60.7809 15.7655 60.0101 15.8112C57.5072 16.0401 55.0591 18.0983 53.7736 21.0529C53.0991 22.5717 52.731 23.8248 52.4896 25.8191C53.268 24.9228 54.8555 23.4501 56.657 22.6449C56.657 22.6449 56.9021 20.7331 58.1521 19.0314C58.6251 18.3268 59.5716 17.1926 60.6345 17.4943C61.5632 17.8054 61.2367 20.3762 60.0025 22.8639C59.0892 24.6938 57.6917 26.5239 56.2777 27.7861C55.0276 28.8472 53.178 30.128 51.5597 29.1401C50.5405 28.5366 50.0206 27.2737 50.1303 25.6454C50.6173 21.0258 52.7203 17.0921 55.7297 12.6095C58.8327 8.44716 62.2532 4.17502 66.8611 1.89677C67.801 1.42114 68.6714 1.31139 69.4238 1.60414C69.4238 1.60414 65.0983 3.98265 63.0364 8.38303C62.5119 9.49929 61.7824 11.0083 62.517 12.344C62.9009 13.0392 63.5824 13.0942 64.1312 13.0575C66.6586 12.4719 68.2915 10.1118 69.6256 7.95303C70.3991 6.31553 71.0866 4.68715 71.0866 2.87577C71.0866 2.65627 71.0753 2.36364 71.0568 2.14389C72.2641 1.50377 74.7403 2.6379 74.7403 2.6379C76.6752 3.27852 80.795 6.43478 82.1848 7.03828C82.8627 6.25165 83.9767 5.06253 84.604 4.46777L83.6959 3.90965C82.2422 3.02227 80.7055 2.18052 79.1932 1.34814C75.7583 -0.526987 72.9623 0.131514 71.5394 0.64389C70.9801 0.845016 70.4691 1.01889 70.4691 1.01889C69.4131 -0.133736 67.6811 -0.0242361 66.405 0.287015C61.8157 1.60427 57.5549 4.81515 52.9867 10.3865C49.6282 14.7503 47.545 18.5194 46.4346 22.2426C45.5787 24.7491 45.3186 28.4357 47.4076 30.6222C49.1837 32.4788 51.5388 32.0766 53.2018 31.4091C56.8052 29.6343 60.0439 25.8102 61.6576 21.4098C62.0471 20.1018 62.4792 18.2539 61.8087 16.8449ZM70.0946 3.0589C69.6176 8.52953 65.3653 11.7408 64.313 11.9965C63.6754 12.1244 62.5874 11.841 63.5587 9.54516C64.989 6.45278 67.4311 3.82752 70.0511 2.48264C70.115 2.7114 70.1133 2.8574 70.0946 3.0589ZM95.3194 3.7539C93.0321 5.05315 90.6608 5.89453 87.7906 5.6019C86.9952 6.49865 86.2205 7.42253 85.5067 8.37378C89.5353 9.39841 93.8062 7.12053 96.1882 4.95265C98.7081 2.76614 100 0.012764 100 0.012764C100 0.012764 98.1113 2.17152 95.3194 3.7539ZM52.0911 8.30953H49.0906L47.3981 11.0595H50.398L52.0911 8.30953Z" fill="#DB252F"/>
<path d="M87.7784 28.8183C87.4558 29.0378 87.0025 28.8691 87.1719 28.3661C87.5942 27.0853 89.2724 24.4753 89.2724 24.4753L93.9469 16.1846H90.7451C90.5928 16.4346 90.2674 17.0086 90.2674 17.0086C90.1193 16.7618 89.6763 16.2132 89.4939 16.0946C88.7117 15.6002 87.564 15.8339 86.7723 16.2821C83.3299 18.2949 80.8183 22.2718 78.8374 25.3732C78.8374 25.3732 76.7523 28.8207 75.5949 29.0771C74.6913 29.1503 74.7845 27.9331 74.8236 27.6495C75.173 25.6 75.9844 23.6516 76.8018 21.886C78.4645 20.7333 80.3619 19.2239 82.0863 17.5682C85.8285 13.9909 88.9834 9.9383 89.4446 9.03267C89.4446 9.03267 88.9454 9.13342 88.356 9.15155C85.477 13.1676 79.5855 19.0043 77.7994 19.8732C78.5907 17.9699 83.7029 8.88618 88.0532 4.54092L88.7378 3.88204C89.7964 2.84829 90.8932 1.78716 91.7479 1.61328C91.8382 1.60416 91.9544 1.61328 92.0548 1.82403C92.0929 2.62891 91.7933 3.22366 91.4496 3.90054L90.9678 4.88867C90.9678 4.88867 91.6502 4.76054 92.0984 4.61379C92.6183 3.63541 93.1943 2.53729 92.9819 1.22941C92.9112 0.808533 92.6064 0.488407 92.2083 0.415157C90.9106 0.168156 89.4963 1.12841 88.3582 1.90628L88.3123 1.93353C82.462 6.51679 77.5221 13.1218 73.2031 22.142C72.8901 22.3795 71.6808 22.6633 71.4753 22.526C71.9018 21.648 72.4388 20.4676 72.7074 19.1868C72.7539 18.8207 72.7971 18.4459 72.7971 18.0801C72.7971 17.2927 72.6081 16.5519 71.9029 16.0399C71.0759 15.6282 70.0538 15.8204 69.3645 16.1312C66.2774 17.4119 63.97 20.5774 62.3049 23.1843C61.4094 24.8406 60.5165 26.6145 60.2692 28.6457C60.0951 30.2372 60.4496 31.262 61.3546 31.7743C62.2851 32.2497 63.4564 31.7556 63.9165 31.518C67.0441 29.8712 69.2295 26.569 70.952 23.55C71.0205 23.541 71.961 23.5137 72.6725 23.3305C72.6819 23.3305 72.6859 23.3305 72.7016 23.34C72.6609 23.4767 72.2933 24.5748 72.2933 24.5748C71.2015 27.7763 70.6966 29.9538 71.7279 31.2436C73.2015 33.0641 75.6413 31.1798 77.6259 28.6911C77.1999 31.6732 78.7454 32.1401 79.9237 31.9116C81.277 31.5459 82.7852 30.1001 83.485 29.3593C83.2603 30.2282 83.3213 31.7837 84.5525 31.939C85.3963 32.095 86.0279 31.636 86.7585 31.2425C89.3797 29.8152 92.5173 25.0593 93.3319 23.6843H92.2638C91.1057 25.4347 89.6321 27.7292 87.7784 28.8183ZM64.2511 28.4998C64.0849 28.2527 64.0297 27.9827 64.0242 27.6907C63.9924 25.8968 65.9224 22.6846 67.2845 20.9346H67.2874C67.8581 22.1846 69.1509 22.9881 69.9313 23.3267C68.9621 25.4858 65.638 30.1098 64.2511 28.4998ZM70.4784 22.3615C70.3861 22.426 68.756 21.8767 68.4409 20.3673C68.1736 19.0678 69.0685 18.0524 69.9343 17.5407C70.3059 17.2477 70.8656 17.1474 71.2763 17.2932C71.6574 17.5498 71.7606 18.0076 71.7606 18.5007C71.7606 18.8032 71.7205 19.1139 71.6851 19.3974L71.6774 19.4617C71.4044 20.4759 71.0014 21.4506 70.4784 22.3615ZM83.553 27.9236C83.5517 27.9236 83.2437 28.198 83.2437 28.198C82.8039 28.5912 82.3514 29.012 81.8052 28.8015C81.6543 28.7467 81.5482 28.5456 81.5227 28.3896C81.4978 27.2643 82.0044 26.2217 82.4959 25.2063L82.6219 24.941C84.0354 22.5808 85.6784 19.7998 88.0914 17.8698C88.498 17.5764 88.9393 17.3299 89.4051 17.5222C89.5122 17.6227 89.6369 17.7966 89.6369 17.9702C89.6369 18.0253 89.5879 18.1716 89.5598 18.2172C88.8858 19.3063 88.2441 20.4496 87.6199 21.5473C86.4002 23.7155 85.1348 25.9563 83.553 27.9236Z" fill="#DB252F"/>
</svg>
