<svg width="61" height="68" viewBox="0 0 61 68" fill="none" xmlns="http://www.w3.org/2000/svg">
<path fill-rule="evenodd" clip-rule="evenodd" d="M37.8398 67.1473L38.0386 67.0479L38.535 66.3022L38.8829 65.6063L39.7281 64.3635L39.9269 64.1646C40.2252 64.4629 40.6726 64.6617 41.2691 64.7114C42.0637 64.612 42.8094 64.3635 43.4059 63.8671L44.2013 63.3203L44.947 62.4255L45.7416 60.8844V60.785C45.8907 60.3873 45.8907 60.0401 45.7416 59.6424L45.4938 59.3441L45.2453 59.1453L44.8973 58.9464L44.4002 58.847L43.7042 58.9464C43.3562 59.0459 43.0082 59.2447 42.7597 59.4436L42.5608 59.543V59.4436L42.7597 58.9464H41.4183C41.2691 58.9464 41.2194 58.9464 41.2194 59.0459L40.9211 59.6424L36.597 66.8988L36.5473 67.1473L37.1935 67.0479L37.8398 67.1473ZM41.9643 60.785C42.2844 60.2947 42.7309 59.8999 43.2568 59.6424L44.0522 59.3441C44.251 59.3441 44.3505 59.4436 44.4002 59.543L44.599 59.9399L44.3008 60.8844L44.2013 60.9838L44.0522 61.3318L43.2568 62.6243L42.6105 63.37L41.6171 64.1149L40.8217 64.264L40.3743 63.8671L40.3246 63.4694L40.3743 63.2209L40.5234 62.9226L40.6726 62.7238L40.8217 62.5249C41.1697 61.9284 41.5177 61.3318 41.9643 60.785ZM12.8891 52.6338C12.2926 52.0878 11.4479 51.8392 10.4537 51.8392C9.11183 51.8392 7.7696 52.1872 6.32835 52.9321C4.83699 53.6281 3.49517 54.6223 2.35219 55.8651C1.1591 57.1568 0.413422 58.6979 0.0658358 60.4867C-0.0833002 61.6798 0.016124 62.674 0.413422 63.4197C0.811118 64.1646 1.25853 64.7612 1.85507 65.1589C2.45161 65.5565 2.99805 65.7554 3.44546 65.8051C5.63239 66.0537 7.42162 65.7057 9.012 64.7612C10.5527 63.8671 11.7955 62.674 12.7396 61.133C13.6344 59.5927 14.1809 58.1013 14.4294 56.5603C14.5288 55.8651 14.4791 55.1691 14.2306 54.4234C13.9824 53.7275 13.5851 53.1309 12.8891 52.6338ZM3.34643 57.7534C4.14142 56.3614 5.13566 55.1194 6.32875 54.1252C7.47173 53.1309 8.76424 52.5841 10.1558 52.5344C11.15 52.6338 11.7462 53.0315 12.0945 53.6778C12.3928 54.3737 12.542 54.9703 12.4922 55.5171C12.4922 56.2131 12.2437 57.1071 11.7466 58.2008C11.3493 59.3441 10.7527 60.4867 9.95733 61.5804C9.16194 62.674 8.26752 63.5689 7.22357 64.264C6.22933 64.96 5.03664 65.2086 3.79423 65.1091C3.09827 64.96 2.65086 64.7114 2.4023 64.1646C2.15374 63.6675 2.0046 63.1712 1.95489 62.6243L2.0046 61.5804C2.15374 60.3873 2.60075 59.1453 3.34643 57.7534ZM49.6184 57.5048L50.016 57.7534C50.4635 57.7534 50.8611 57.6042 51.1097 57.3557L51.3086 56.9083L51.1594 56.5106C51.06 56.4111 50.9606 56.3614 50.9109 56.3614H50.5132C50.1652 56.4111 49.9166 56.5603 49.7675 56.7591C49.6184 57.0077 49.5197 57.2562 49.6184 57.5048ZM40.1257 52.5344L39.9766 52.4358L39.3801 52.1872L38.6841 51.9386C37.4421 51.6901 36.249 51.6901 35.1056 52.0381C34.7079 52.0878 34.311 52.1872 34.0128 52.3355C33.5654 52.4847 33.2174 52.6835 32.8694 52.9321L32.1734 53.5286L31.7757 54.324C31.6266 54.5726 31.6266 54.8211 31.6266 55.1691L31.8751 55.8154L32.2231 56.61L32.6705 57.2065L34.311 58.847L34.4097 59.0459L35.2051 59.8413L36.1496 61.2821L36.3484 61.6798L36.4479 62.2266L36.3484 62.7735L36.249 63.1215L36.0004 63.6186L35.7519 63.916L35.0062 64.4629L34.5588 64.6617L34.311 64.8109L33.7145 65.0594L32.8694 65.2583L31.2786 65.308C30.5826 65.2086 29.8871 65.0097 29.2905 64.7114C28.7437 64.3635 28.3961 63.9658 28.247 63.5191L28.1475 63.022V62.2266C28.247 61.8289 28.4458 61.481 28.7441 60.9838L29.3406 60.3873C29.7383 60.0401 30.0863 59.7915 30.4836 59.6424C30.8312 59.4436 31.2786 59.2944 31.726 59.1453C31.8254 59.0956 31.8254 59.0459 31.7757 58.9464H30.7318L29.4894 59.2944C29.0917 59.4436 28.6944 59.6424 28.3464 59.8902L27.551 60.4867C27.203 60.785 26.9545 61.133 26.8053 61.481L26.507 62.3261V62.8232L26.6065 63.3203L26.9545 64.0155L27.7498 64.7612L28.5452 65.2583L30.4339 65.8051L33.2174 65.7057L34.7576 65.4074L34.9068 65.3577C35.627 65.1174 36.3123 64.7831 36.945 64.3635L37.8895 63.3203C38.1373 62.9723 38.3361 62.5746 38.3858 62.1769L38.4852 61.7295L38.187 60.5364L37.7901 59.9399C37.3345 59.207 36.7827 58.5385 36.1496 57.9522L35.9507 57.7534L35.2051 57.1071L34.0128 55.8154L33.963 55.6662L33.7642 55.368L33.4659 54.6223C33.4659 54.2743 33.4659 54.0257 33.5654 53.7772L33.7145 53.6281L34.0128 53.2801L34.4097 52.9321L34.7079 52.783L35.4536 52.4847L36.9947 52.2858H37.3924L38.187 52.4358L39.2309 53.0315L39.5789 53.5286L39.7281 53.8269V54.4234L39.6286 54.8211L39.2309 55.3183L38.6344 55.9148L37.9889 56.2628V56.4111H38.5847L38.7835 56.3614C38.9824 56.2628 39.1315 56.2131 39.2309 56.1626L40.2252 55.716L40.3246 55.6165L40.4737 55.5171L40.7223 55.2686L40.9708 54.9206L41.1697 54.4732C41.2194 54.0257 41.1697 53.7275 41.0703 53.4789C40.8714 53.0812 40.5732 52.783 40.1257 52.5344ZM50.1155 58.847H48.4758L46.2884 62.674L45.9902 63.3203C45.9405 63.5689 45.9405 63.8174 45.9902 64.0155C46.0896 64.3145 46.3382 64.4629 46.7358 64.612L48.1775 64.264L48.9729 63.8174L49.1717 63.6186L49.7675 63.1712L49.8669 63.2209C49.9166 63.6675 50.1652 64.0155 50.6623 64.3145C51.1594 64.5623 51.756 64.612 52.3525 64.5126L52.8993 64.3635L53.0974 64.3145L53.7934 64.0155L55.1356 63.0717L55.2847 63.2209L55.3344 63.5689L55.4339 63.7669C55.6824 64.264 56.2292 64.5126 56.9749 64.612H57.6204L58.1175 64.4629C59.2609 64.0155 60.106 63.4694 60.6528 62.7735L60.8517 62.4255L60.6528 62.3758L59.2609 63.5689C58.9129 63.7669 58.5152 63.9658 58.0181 64.1149H57.2724C56.9749 64.0155 56.8258 63.8174 56.7761 63.6186V62.9226L56.8755 62.5746L57.3221 61.5804L58.2666 60.089L58.8632 59.4436C59.1117 59.195 59.3106 59.0956 59.5592 59.0459C59.758 59.0956 59.8574 59.195 59.8574 59.2944V59.7418L59.5592 60.437L59.3106 60.7353L58.6146 61.4312L57.8689 61.7295H57.6701C57.5707 61.7792 57.521 61.8289 57.521 61.8787L57.8192 61.9781L58.1175 61.9284C59.2609 61.7295 60.1557 61.2324 60.7025 60.4867C60.8439 60.2574 60.9445 60.0054 61 59.7418V59.543C61 59.195 60.7522 58.9464 60.2551 58.7476L59.9568 58.6979H59.7083C59.1117 58.7476 58.5152 58.9464 58.0181 59.2944L57.6701 59.4933L56.5772 60.437L55.6327 61.7295L55.3344 62.3261L55.2847 62.3758L54.1911 63.2706C53.7808 63.5859 53.3056 63.8064 52.7999 63.916H51.9548C51.7062 63.8174 51.5074 63.6186 51.4577 63.3203L51.408 62.9226L51.4577 62.674V62.4752L51.6565 62.0775L52.4519 60.7353C52.8496 60.1387 53.4454 59.543 54.2905 59.0956L54.8373 59.0459L55.1356 59.2944V59.4933C55.1853 59.6424 55.1356 59.7915 54.887 59.9904L53.9922 60.4867L53.8431 60.5364L53.6939 60.6359L53.9922 60.7353H54.539L55.1356 60.6359C55.6327 60.3873 55.8813 60.1387 55.8813 59.7915V59.543L55.5333 58.9962C55.3344 58.847 55.0859 58.7973 54.8373 58.7476H54.1413C53.6939 58.7973 53.346 58.9464 52.9988 59.0459L52.7502 59.195C52.2531 59.4933 51.8554 59.7915 51.4577 60.1884C50.8114 60.8844 50.3143 61.5804 49.9663 62.3261L49.5686 62.8729L48.0284 63.8671H47.6307C47.5312 63.7172 47.4815 63.5191 47.5312 63.4197L47.9786 62.4752L50.1155 58.847ZM26.408 55.5668H25.3641L24.7679 55.6662L22.7301 59.0459L22.5313 59.2944L22.3324 59.0459C22.1833 58.8967 21.9347 58.7973 21.5868 58.6979L21.0403 58.7476L20.8912 58.7973C20.1952 58.9962 19.5987 59.2447 19.0522 59.6424L17.7597 60.7353C17.362 61.2324 17.0642 61.8289 16.8156 62.4255L16.6665 62.8232L16.4676 63.022C16.1196 63.3203 15.6722 63.5689 15.1254 63.7669L14.5786 63.8671L14.4294 63.6186L14.7774 62.674L18.9524 55.5668H17.3616L13.0872 62.9226L12.8386 63.5689C12.8386 63.8174 12.8386 64.0652 12.9381 64.264C13.0872 64.4629 13.2363 64.5623 13.5843 64.612H13.7832L15.125 64.264L16.6661 63.37L16.7158 63.5191L16.9643 64.1149C17.2626 64.4629 17.6603 64.612 18.2564 64.612L19.4992 64.264L20.0461 63.8671L20.4438 63.4197L20.5432 63.6186V64.0155L20.742 64.3635C20.8912 64.5126 21.0403 64.612 21.2889 64.612H21.7856L22.6307 64.264C23.3764 63.8671 23.9228 63.4197 24.3205 62.9226L24.3702 62.7238H24.1714L22.8793 63.6675L22.581 63.8671L22.3324 63.9658L21.9844 63.916C21.885 63.7669 21.8353 63.6186 21.885 63.4197V63.2209L26.3583 55.6662L26.408 55.5668ZM18.9528 61.3318L19.9471 60.089L20.643 59.4436C20.8916 59.2944 21.1401 59.195 21.5378 59.1453L21.8858 59.2447L22.1344 59.7418L21.8858 60.5861L20.544 62.674L19.848 63.4694L19.3509 63.8671L18.6056 64.1646C18.4068 64.2143 18.2079 64.1646 18.1085 64.0155C18.0091 63.8671 18.0091 63.6186 18.0091 63.37L18.0588 63.022L18.4068 62.1272L18.5062 61.9781L18.9528 61.3318ZM39.7778 4.82083L39.5789 4.22428L24.4199 43.5882L17.959 48.1116L24.1221 44.6326L23.0781 47.2168L24.0724 47.0677L28.3965 46.0734C29.3423 45.7569 30.2713 45.3918 31.1796 44.9798C32.0744 44.4834 32.8698 43.9863 33.516 43.4892L34.6586 42.1967L36.0008 40.209L30.931 41.1527L30.2354 41.451H30.136L34.2617 39.9107C35.4043 39.513 36.6471 39.1651 37.8899 39.0159L40.5238 38.6679L42.8595 38.7674C43.7543 38.8668 44.2514 39.0159 44.4006 39.1153L44.6491 39.3142L41.9647 39.513L40.5736 39.7616L39.977 41.7493L39.2313 43.1412L36.3985 46.2226C36.3985 46.2723 36.4482 46.322 36.498 46.2723L38.5354 45.7752C39.5793 45.4769 40.8718 44.8314 42.3624 43.8869C43.8537 42.9921 45.3451 41.6001 46.8357 39.7616C47.9293 38.3199 48.7744 36.8286 49.4207 35.1889C50.0164 33.6478 50.4638 32.1071 50.6627 30.6659C50.9113 29.1749 50.961 27.8331 50.8615 26.7394C50.6627 24.6022 50.3147 22.7136 49.8176 21.1729C49.2716 19.5821 48.7744 18.29 48.1779 17.2464L46.786 14.8607C46.1397 13.8167 45.3948 12.8229 44.5497 11.928L41.2198 8.79699L41.7161 9.6417L43.456 13.5681L44.3012 16.8487C44.5497 17.9921 44.5994 19.1351 44.5497 20.1289C44.4006 21.67 44.1023 23.161 43.5555 24.7514C43.1081 26.3919 42.3624 27.8331 41.5181 29.0258C39.6787 31.5607 37.7905 33.6478 35.7523 35.4374L31.6767 38.9165L30.6829 39.6125L30.3846 39.5627C30.3349 39.513 30.3846 39.3639 30.5834 39.1153L33.1187 36.9785L38.1381 31.8093L40.3751 28.7772L41.1705 27.4851L41.5185 23.9063C41.6179 21.8187 41.5185 18.9856 41.2699 15.5065L39.7778 4.82083Z" fill="#CC2229"/>
<path fill-rule="evenodd" clip-rule="evenodd" d="M12.1441 45.0793L8.61499 48.2112L21.14 44.583L29.0924 24.5029L19.8976 36.3817L12.1441 45.0793Z" fill="#CC2229"/>
<path fill-rule="evenodd" clip-rule="evenodd" d="M39.977 0L39.5793 0.049712L22.2334 44.2846L23.4265 43.4892L39.977 0ZM39.4799 4.523L40.673 16.3024C40.8221 19.5332 40.8221 23.062 40.673 26.889C40.673 27.585 40.5735 28.1314 40.3747 28.6783L40.673 28.3303L41.1701 27.3861C41.4186 26.7399 41.5181 25.4975 41.5181 23.6088C41.5678 21.7699 41.5181 19.6323 41.3192 17.2469C41.1701 14.8114 40.9712 12.426 40.673 10.0899C40.325 7.75388 39.977 5.81551 39.5793 4.32455V4.22512L39.4799 4.523ZM35.6031 40.5069L33.7646 42.5443C33.3172 42.9917 32.8201 43.3397 32.2235 43.7374L29.8377 44.9297L27.104 45.7748L23.4261 46.4708L23.0781 47.2662L27.9988 46.3713L30.4343 45.4765L32.5218 44.3339L33.9634 43.0911C34.5592 42.4946 35.2552 41.5501 35.9511 40.3081C35.9511 40.1593 35.8517 40.2588 35.6031 40.5069Z" fill="#CC2229"/>
<path fill-rule="evenodd" clip-rule="evenodd" d="M41.7665 8.79748L41.4185 8.69805C41.2694 8.64834 41.1699 8.69805 41.2694 8.84719L43.605 11.3324C44.649 12.4261 45.4941 13.6187 46.1893 14.8118L47.6309 17.2473L49.5689 22.0189L50.3643 27.3369L50.2649 29.8718L49.8672 32.1581L49.1223 34.1959L47.7801 36.9798C47.1338 38.1224 46.2887 39.3155 45.2455 40.5583C44.1519 41.8003 42.8594 42.8939 41.2694 43.9876L36.5475 46.2238C36.3487 46.3233 36.3487 46.373 36.5972 46.3233L40.0763 45.3787L42.3125 44.2362L45.9904 41.154L47.5812 39.1663L49.2217 36.3335C49.7677 35.2896 50.2151 34.1959 50.4637 33.1528L51.0602 30.3196C51.3088 29.0768 51.3088 27.4864 51.1597 25.5977C50.9608 23.5599 50.4637 21.5719 49.6186 19.5341C48.824 17.4963 47.9292 15.707 46.8852 14.2157C46.2008 13.2089 45.454 12.246 44.649 11.3328C43.8039 10.5374 43.1576 9.89154 42.6108 9.49385L41.7665 8.79748ZM29.4399 24.2543L28.9925 24.8012L21.3384 42.7436C20.7419 44.0858 20.4933 44.7313 20.5431 44.781L21.1396 44.583L29.4399 24.2543Z" fill="#CC2229"/>
<path fill-rule="evenodd" clip-rule="evenodd" d="M43.6546 38.9163L44.4998 39.2643V39.3637L43.5552 39.314L40.6727 39.5625L40.5733 39.662L40.4739 39.7614H43.0084L43.7541 39.9105L43.8535 40.2088L43.3564 40.8053C43.2072 40.8542 43.2072 40.904 43.2072 40.9537L43.7541 40.7059L44.3009 40.2088L44.4998 39.9105L44.9472 39.1648L44.8974 38.7671C44.6986 38.3694 44.1021 38.1209 43.1575 38.0215L39.9768 37.9717L36.6966 38.4689C35.2549 38.8168 34.2118 39.1648 33.6152 39.5128L27.2533 42.4947C27.0544 42.5942 27.0544 42.6439 27.2533 42.5445L32.969 40.3579C33.9717 39.9938 35.0021 39.7112 36.0503 39.5128L37.2931 39.1648L41.0704 38.6677L43.6546 38.9163ZM29.241 51.8394C28.1477 51.6903 27.3523 51.4417 26.8055 51.0937C26.2586 50.8452 25.8112 50.696 25.4135 50.5966C25.3141 50.5966 25.3638 50.696 25.4632 50.7955L25.7615 51.3423V51.4417L22.3819 50.9943C21.0401 50.9446 19.6481 51.1931 18.2566 51.6903V51.7897L18.4554 51.6903L20.2944 51.4417L29.7377 52.286L32.024 51.8394L32.1235 51.6903L31.6263 51.7897C30.9308 51.9388 30.1358 51.9388 29.241 51.8394Z" fill="#CC2229"/>
<path fill-rule="evenodd" clip-rule="evenodd" d="M25.8611 50L28.744 50.9942L29.6885 50.5965L34.0628 47.2666L27.8993 47.5152L21.5374 48.3603L22.283 46.3221L21.0406 46.9684L20.5932 48.1117L20.4441 48.4589L11.7461 50.2983C11.9947 50.5468 12.4421 50.7457 12.9392 50.9445L14.4301 51.1931L16.5674 51.2428L20.4441 50.4971L24.5197 50.5965L24.6191 50.4971L24.0723 49.9503L24.2214 49.7017L25.8611 50Z" fill="#CC2229"/>
</svg>
