<svg width="1910" height="119" viewBox="0 0 1910 119" fill="none" xmlns="http://www.w3.org/2000/svg">
<path d="M703.595 24.1142C703.595 36.0083 703.213 117.374 703.213 117.374H784.936V26.8174C784.936 15.1937 766.605 0.86676 745.22 0.86676C723.834 0.86676 703.595 12.2202 703.595 24.1142Z" fill="#FDFCFB" fill-opacity="0.8"/>
<path d="M843.702 26.4913V118.4H925.808C925.808 118.4 925.044 37.0337 925.044 25.41C925.044 13.7863 907.859 0 884.373 0C860.887 0 843.702 14.5972 843.702 26.4913Z" fill="#FDFCFB" fill-opacity="0.8"/>
<path d="M984.574 26.8174V118.726H1066.68V26.2768C1066.68 13.8421 1049.49 0.86676 1025.24 0.86676C1001 0.86676 984.574 14.9234 984.574 26.8174Z" fill="#FDFCFB" fill-opacity="0.8"/>
<path d="M1125.45 27.684V118.511L1206.79 117.971V27.684C1206.79 15.2493 1190.37 1.73331 1166.12 1.73331C1141.87 1.73331 1125.45 15.7899 1125.45 27.684Z" fill="#FDFCFB" fill-opacity="0.8"/>
<path d="M1828.28 48.3636V104.86H1844.32C1844.32 104.86 1841.64 51.3371 1844.32 41.8761C1846.99 32.415 1853.86 23.4944 1874.48 23.4944C1895.11 23.4944 1910 41.8761 1910 41.8761C1910 41.8761 1904.27 16.4659 1871.05 16.4661C1837.82 16.4662 1828.28 35.118 1828.28 48.3636Z" fill="#FDFCFB" fill-opacity="0.8"/>
<path d="M81.7231 48.3636V104.86H65.684C65.684 104.86 68.3572 51.3371 65.684 41.8761C63.0108 32.415 56.1369 23.4944 35.5152 23.4944C14.8934 23.4944 -8.39233e-05 41.8761 -8.39233e-05 41.8761C-8.39233e-05 41.8761 5.72818 16.4659 38.9521 16.4661C72.176 16.4662 81.7231 35.118 81.7231 48.3636Z" fill="#FDFCFB" fill-opacity="0.8"/>
<path fill-rule="evenodd" clip-rule="evenodd" d="M1687.02 109.233C1687.02 109.233 1687.41 62.4679 1687.41 44.6268C1687.41 26.7857 1703.83 12.9995 1728.27 12.9995C1752.71 12.9995 1769.13 28.1373 1769.13 41.6533C1769.13 55.1693 1769.51 106.53 1769.51 106.53L1753.47 107.056C1753.41 102.662 1752.7 47.9437 1752.7 41.4368C1752.7 34.6571 1747.7 24.6232 1727.31 24.6232C1706.92 24.6232 1702.3 35.7419 1702.3 43.8775C1702.3 52.0132 1702.68 107.878 1702.68 107.878V108.72L1687.02 109.233Z" fill="#FDFCFB" fill-opacity="0.8"/>
<path fill-rule="evenodd" clip-rule="evenodd" d="M222.977 109.233C222.977 109.233 222.595 62.4679 222.595 44.6268C222.595 26.7857 206.174 12.9995 181.733 12.9995C157.293 12.9995 140.872 28.1373 140.872 41.6533C140.872 55.1693 140.49 106.53 140.49 106.53L156.533 107.056C156.59 102.662 157.299 47.9437 157.299 41.4368C157.299 34.6571 162.301 24.6232 182.693 24.6232C203.085 24.6232 207.702 35.7419 207.702 43.8775C207.702 52.0132 207.317 107.878 207.317 107.878V108.72L222.977 109.233Z" fill="#FDFCFB" fill-opacity="0.8"/>
<path fill-rule="evenodd" clip-rule="evenodd" d="M1545.77 112.254C1545.77 112.254 1546.15 52.2435 1546.15 38.4572C1546.15 24.671 1562.95 9.53307 1586.25 9.53307C1609.54 9.53307 1627.11 23.049 1627.11 37.1056C1627.11 51.1622 1628.26 110.362 1628.26 110.362L1604.55 110.906L1612.22 110.618V38.6027C1612.22 35.0565 1607.55 22.5084 1590.45 22.5084C1573.35 22.5084 1568.68 35.6021 1568.68 42.6945V111.729L1545.77 112.254Z" fill="#FDFCFB" fill-opacity="0.8"/>
<path fill-rule="evenodd" clip-rule="evenodd" d="M364.23 112.254C364.23 112.254 363.848 52.2435 363.848 38.4572C363.848 24.671 347.045 9.53307 323.75 9.53307C300.456 9.53307 282.889 23.049 282.889 37.1056C282.889 51.1622 281.743 110.362 281.743 110.362L305.449 110.906L297.783 110.618V38.6027C297.783 35.0565 302.447 22.5084 319.55 22.5084C336.653 22.5084 341.317 35.6021 341.317 42.6945V111.729L364.23 112.254Z" fill="#FDFCFB" fill-opacity="0.8"/>
<path fill-rule="evenodd" clip-rule="evenodd" d="M1405.66 115.005C1405.66 115.005 1406.04 50.6691 1406.04 34.45C1406.04 18.2308 1423.23 6.06646 1446.52 6.06646C1469.82 6.06646 1487 19.0418 1487 33.9093V113.383L1470.58 113.711V35.9003C1470.58 30.4446 1465.31 24.989 1457.22 24.989C1449.12 24.989 1443.85 30.7174 1443.85 35.9003V114.244L1405.66 115.005Z" fill="#FDFCFB" fill-opacity="0.8"/>
<path fill-rule="evenodd" clip-rule="evenodd" d="M504.338 115.005C504.338 115.005 503.956 50.6691 503.956 34.45C503.956 18.2308 486.771 6.06646 463.477 6.06646C440.182 6.06646 422.997 19.0418 422.997 33.9093V113.383L439.418 113.711V35.9003C439.418 30.4446 444.689 24.989 452.784 24.989C460.879 24.989 466.15 30.7174 466.15 35.9003V114.244L504.338 115.005Z" fill="#FDFCFB" fill-opacity="0.8"/>
<path fill-rule="evenodd" clip-rule="evenodd" d="M1265.55 116.19C1265.55 116.19 1265.94 51.3131 1265.94 33.4721C1265.94 15.631 1283.88 3.46661 1306.42 3.46661C1328.95 3.46661 1346.9 15.631 1346.9 30.7689V115.649L1332 115.748V35.9578C1332 32.9661 1330.47 27.2548 1325.13 27.2548C1319.78 27.2548 1318.25 31.6063 1318.25 34.8699V115.839L1265.55 116.19Z" fill="#FDFCFB" fill-opacity="0.8"/>
<path fill-rule="evenodd" clip-rule="evenodd" d="M644.446 116.19C644.446 116.19 644.064 51.3131 644.064 33.4721C644.064 15.631 626.116 3.46661 603.584 3.46661C581.053 3.46661 563.105 15.631 563.105 30.7689V115.649L577.998 115.748V35.9578C577.998 32.9661 579.526 27.2548 584.872 27.2548C590.219 27.2548 591.746 31.6063 591.746 34.8699V115.839L644.446 116.19Z" fill="#FDFCFB" fill-opacity="0.8"/>
</svg>
